<svg width="23" height="23" viewBox="0 0 23 23" fill="none" xmlns="http://www.w3.org/2000/svg">
<path d="M19.6315 3.36815C17.5541 1.28912 14.6718 -0.000628676 11.5 2.29895e-07C8.3282 -0.000628676 5.44552 1.28912 3.36811 3.36815C1.28908 5.44556 -0.000673564 8.3282 2.63901e-07 11.5C-0.000673564 14.6718 1.28908 17.5545 3.36811 19.6319C5.44552 21.7109 8.3282 23.0007 11.5 23C14.6718 23.0007 17.5541 21.7109 19.6315 19.6319C21.7109 17.5545 23.0006 14.6718 23 11.5C23.0006 8.3282 21.7109 5.44556 19.6315 3.36815ZM17.9451 5.05488C19.5966 6.708 20.6141 8.97903 20.6148 11.5C20.6142 14.021 19.5966 16.292 17.9451 17.9451C16.2917 19.5966 14.0206 20.6142 11.5 20.6148C8.97903 20.6142 6.708 19.5966 5.05488 17.9451C3.40337 16.292 2.38585 14.021 2.38517 11.5C2.3858 8.97907 3.40337 6.708 5.05483 5.05488C6.70796 3.40342 8.97903 2.38585 11.5 2.38517C14.0206 2.38589 16.2917 3.40342 17.9451 5.05488Z" fill="#1F2D3C"/>
<path d="M11.5 14.9324C10.7826 14.9324 10.1949 15.5204 10.1949 16.2374C10.1949 16.9545 10.7826 17.5422 11.5 17.5422C12.217 17.5422 12.805 16.9545 12.805 16.2374C12.805 15.5204 12.217 14.9324 11.5 14.9324Z" fill="#1F2D3C"/>
<path d="M11.5 14.015C11.7935 14.015 12.2054 12.7186 12.3112 12.3396C12.6403 11.2422 12.9109 9.74644 12.9109 8.50961C12.9109 7.03321 12.4989 5.45789 11.5 5.45789C10.5004 5.45789 10.0888 7.03316 10.0888 8.50961C10.0888 9.74649 10.3597 11.2422 10.6887 12.3396C10.7945 12.7186 11.2058 14.015 11.5 14.015Z" fill="#1F2D3C"/>
</svg>
