<svg width="24" height="19" viewBox="0 0 24 19" fill="none" xmlns="http://www.w3.org/2000/svg">
<path d="M22.125 0.00422195C21.0892 0.00422195 20.25 1.18631 20.25 2.64282C20.25 2.94256 20.2935 3.22436 20.358 3.49245L15.7875 9.03033C15.4672 8.67043 15.0667 8.44667 14.625 8.44667C14.115 8.44667 13.6545 8.73481 13.317 9.1992L9.7365 6.6767C9.66675 5.30885 8.865 4.22492 7.875 4.22492C6.84 4.22492 6 5.40701 6 6.86352C6 7.26247 6.0675 7.6361 6.18 7.97489L2.52975 13.898C2.325 13.7904 2.10675 13.7228 1.875 13.7228C0.83925 13.7228 0 14.9038 0 16.3614C0 17.819 0.83925 19 1.875 19C2.91075 19 3.75 17.819 3.75 16.3614C3.75 16.011 3.699 15.6764 3.6105 15.3703L7.32 9.37018C7.497 9.44723 7.68 9.50106 7.875 9.50106C8.42025 9.50106 8.90775 9.16754 9.2505 8.64299L12.7523 11.1138C12.765 12.5565 13.5975 13.7218 14.625 13.7218C15.6608 13.7218 16.5 12.5407 16.5 11.0832C16.5 11.0367 16.4917 10.9924 16.4902 10.946L21.3675 5.04922C21.5992 5.19381 21.8542 5.27719 22.125 5.27719C23.1608 5.27719 24 4.09616 24 2.6386C24 1.18104 23.1608 0 22.125 0V0.00422195Z" fill="#1F2D3C"/>
</svg>
